# xmcd
#
# Track frame offsets: 
#        150
#        22397
#        39603
#        62108
#        82367
#        113324
#        128912
#        148891
#        173216
#        191726
#        227070
#        240955
#
# Disc length: 3491 seconds
#
# Revision: 0
# Processed by: cddbd v1.5.2PL0 Copyright (c) Steve Scherf et al.
# Submitted via: ExactAudioCopyFreeDBPlugin 1.0
#
DISCID=ab0da10c
DTITLE=Dr Blues and Soul Re Vision - Tribute To Ol'skool Soul Masters
DYEAR=2013
DGENRE=Blues
TTITLE0=Knock On Wood
TTITLE1=634-5789
TTITLE2=Chain Of Fools
TTITLE3=New Orleans
TTITLE4=Siting On The Dock...
TTITLE5=Funky Broadway
TTITLE6=Something You Got
TTITLE7=Fire on The Bayou - Double Love
TTITLE8=Groove Me
TTITLE9=Mannish Boy
TTITLE10=In The Midnight Hour
TTITLE11=She's Lookin' Good
EXTD=
EXTT0=
EXTT1=
EXTT2=
EXTT3=
EXTT4=
EXTT5=
EXTT6=
EXTT7=
EXTT8=
EXTT9=
EXTT10=
EXTT11=
PLAYORDER=
